<?xml version="1.0" encoding="UTF-8"?>
<svg id="Layer_2" xmlns="http://www.w3.org/2000/svg" viewBox="0 0 753.74 127.15">
  <defs>
    <style>
      .cls-1 {
        fill: #0047ab;
      }

      .cls-2 {
        fill: #13aaff;
      }

      .cls-3 {
        fill: #0d153f;
      }
    </style>
  </defs>
  <g id="Layer_1-2" data-name="Layer_1">
    <g>
      <g>
        <path class="cls-3" d="M728.59,28.67h-5.06v-1.83h12.2v1.83h-5.06v12.92h-2.09v-12.92Z"/>
        <path class="cls-3" d="M751.71,41.58l-.02-10.75-5.33,8.96h-.97l-5.33-8.89v10.69h-2.02v-14.75h1.73l6.16,10.37,6.07-10.37h1.73l.02,14.75h-2.02Z"/>
      </g>
      <g>
        <path class="cls-1" d="M88.63,12.67c-4.95-7.95-13.46-12.67-22.81-12.67-.1,0-.2,0-.31,0-9.47.1-18.01,5.03-22.83,13.18L0,85.2h27.3L62.89,25.15c.85-1.43,2.17-1.66,2.88-1.66.01,0,.03,0,.04,0,.72,0,2.02.22,2.88,1.6l13.47,21.62h27.67l-21.2-34.04Z"/>
        <path class="cls-2" d="M63.64,105.16c4.95,7.95,13.46,12.67,22.81,12.67.1,0,.2,0,.31,0,9.47-.1,18.01-5.03,22.83-13.18l42.68-72.02h-27.3l-35.58,60.05c-.85,1.43-2.17,1.66-2.88,1.66-.01,0-.03,0-.04,0-.72,0-2.02-.22-2.88-1.6l-13.47-21.62h-27.67l21.2,34.04Z"/>
      </g>
      <path d="M258.03,15.29v87.19h-5.23l-59.42-75.74v75.74h-6.35V15.29h5.36l59.29,75.73V15.29h6.35Z"/>
      <path d="M337.89,71.47h-55.93c.62,15.45,11.96,25.91,27.53,25.91,8.22,0,15.82-2.99,20.8-9.09l3.61,4.11c-5.73,6.98-14.7,10.59-24.54,10.59-19.68,0-33.51-13.7-33.51-33.01s13.33-33.01,31.14-33.01,31.02,13.45,31.02,32.76c0,.5-.13,1.12-.13,1.74ZM282.08,66.61h49.83c-.87-14.08-11.09-24.17-24.91-24.17s-23.92,9.96-24.91,24.17Z"/>
      <path d="M346.74,69.98c0-19.31,13.83-33.01,32.51-33.01s32.51,13.7,32.51,33.01-13.83,33.01-32.51,33.01-32.51-13.7-32.51-33.01ZM405.41,69.98c0-16.32-11.21-27.4-26.16-27.4s-26.16,11.09-26.16,27.4,11.21,27.4,26.16,27.4,26.16-11.09,26.16-27.4Z"/>
      <path d="M483.02,77.95h-50.57l-11.09,24.54h-6.85l40.11-87.19h6.35l40.11,87.19h-6.85l-11.21-24.54ZM480.65,72.59l-22.92-50.32-22.8,50.32h45.71Z"/>
      <path d="M569.34,37.47v58.05c0,21.8-10.59,31.64-31.51,31.64-11.83,0-23.17-3.74-29.77-10.34l3.36-4.73c6.48,5.98,15.82,9.47,26.28,9.47,17.31,0,25.41-7.97,25.41-25.29v-10.96c-5.36,9.47-15.32,14.82-27.03,14.82-18.44,0-32.39-13.08-32.39-31.64s13.95-31.51,32.39-31.51c11.96,0,22.05,5.48,27.28,15.2v-14.7h5.98ZM563.24,68.48c0-15.32-11.21-25.91-26.66-25.91s-26.53,10.59-26.53,25.91,11.21,26.03,26.53,26.03,26.66-10.71,26.66-26.03Z"/>
      <path d="M647.2,71.47h-55.93c.62,15.45,11.96,25.91,27.53,25.91,8.22,0,15.82-2.99,20.8-9.09l3.61,4.11c-5.73,6.98-14.7,10.59-24.54,10.59-19.68,0-33.51-13.7-33.51-33.01s13.33-33.01,31.14-33.01,31.02,13.45,31.02,32.76c0,.5-.13,1.12-.13,1.74ZM591.4,66.61h49.83c-.87-14.08-11.09-24.17-24.91-24.17s-23.92,9.96-24.91,24.17Z"/>
      <path d="M721.32,64.5v37.99h-6.23v-37.49c0-14.7-7.85-22.42-21.05-22.42-15.32,0-24.66,9.84-24.66,25.29v34.63h-6.23V37.47h5.98v14.08c4.36-9.09,13.45-14.57,25.78-14.57,15.82,0,26.41,9.34,26.41,27.53Z"/>
    </g>
  </g>
</svg>