<?xml version="1.0" encoding="UTF-8"?>
<svg id="Layer_1" xmlns="http://www.w3.org/2000/svg" viewBox="0 0 1300 900">
  <g>
    <path d="M891.67,426.01h-3.48v-1.26h8.39v1.26h-3.48v8.88h-1.43v-8.88Z"/>
    <path d="M907.55,434.89v-7.39s-3.68,6.15-3.68,6.15h-.67l-3.66-6.11v7.34h-1.39v-10.14h1.19l4.23,7.13,4.17-7.13h1.19v10.14s-1.37,0-1.37,0Z"/>
  </g>
  <g>
    <path d="M451.95,415.03c-3.4-5.46-9.25-8.71-15.67-8.71-.07,0-.14,0-.21,0-6.51.07-12.37,3.46-15.69,9.05l-29.32,49.48h18.76l24.45-41.26c.58-.98,1.49-1.14,1.98-1.14,0,0,.02,0,.03,0,.5,0,1.39.15,1.98,1.1l9.25,14.86h19.01l-14.57-23.39Z"/>
    <path d="M434.79,478.57c3.4,5.46,9.25,8.71,15.67,8.71.07,0,.14,0,.21,0,6.51-.07,12.37-3.46,15.69-9.05l29.32-49.48h-18.76l-24.45,41.26c-.58.98-1.49,1.14-1.98,1.14,0,0-.02,0-.03,0-.5,0-1.39-.15-1.98-1.1l-9.25-14.86h-19.01l14.57,23.39Z"/>
  </g>
  <path d="M568.35,416.83v59.91h-3.59l-40.82-52.04v52.04h-4.37v-59.91h3.68l40.74,52.04v-52.04h4.36Z"/>
  <path d="M623.22,455.42h-38.43c.43,10.61,8.22,17.8,18.91,17.8,5.65,0,10.87-2.05,14.29-6.25l2.48,2.82c-3.94,4.79-10.1,7.28-16.86,7.28-13.52,0-23.02-9.42-23.02-22.68s9.16-22.68,21.4-22.68,21.31,9.24,21.31,22.51c0,.34-.09.77-.09,1.2ZM584.87,452.09h34.24c-.6-9.67-7.62-16.6-17.12-16.6s-16.43,6.85-17.12,16.6Z"/>
  <path d="M629.3,454.4c0-13.27,9.5-22.68,22.34-22.68s22.34,9.42,22.34,22.68-9.5,22.68-22.34,22.68-22.34-9.42-22.34-22.68ZM669.61,454.4c0-11.21-7.7-18.83-17.97-18.83s-17.97,7.62-17.97,18.83,7.7,18.83,17.97,18.83,17.97-7.62,17.97-18.83Z"/>
  <path d="M722.93,459.88h-34.75l-7.62,16.86h-4.71l27.56-59.91h4.37l27.56,59.91h-4.71l-7.7-16.86ZM721.31,456.19l-15.75-34.58-15.66,34.58h31.41Z"/>
  <path d="M782.25,432.06v39.88c0,14.98-7.27,21.74-21.65,21.74-8.13,0-15.92-2.57-20.46-7.1l2.31-3.25c4.45,4.11,10.87,6.5,18.06,6.5,11.9,0,17.46-5.48,17.46-17.37v-7.53c-3.68,6.5-10.53,10.18-18.57,10.18-12.67,0-22.25-8.99-22.25-21.74s9.59-21.65,22.25-21.65c8.22,0,15.15,3.77,18.74,10.44v-10.1h4.11ZM778.06,453.37c0-10.53-7.7-17.8-18.32-17.8s-18.23,7.27-18.23,17.8,7.7,17.89,18.23,17.89,18.32-7.36,18.32-17.89Z"/>
  <path d="M835.74,455.42h-38.43c.43,10.61,8.22,17.8,18.91,17.8,5.65,0,10.87-2.05,14.29-6.25l2.48,2.82c-3.94,4.79-10.1,7.28-16.86,7.28-13.52,0-23.02-9.42-23.02-22.68s9.16-22.68,21.4-22.68,21.31,9.24,21.31,22.51c0,.34-.09.77-.09,1.2ZM797.4,452.09h34.24c-.6-9.67-7.62-16.6-17.12-16.6s-16.43,6.85-17.12,16.6Z"/>
  <path d="M886.67,450.63v26.1h-4.28v-25.76c0-10.1-5.39-15.41-14.46-15.41-10.53,0-16.95,6.76-16.95,17.37v23.79h-4.28v-44.68h4.11v9.67c3-6.25,9.24-10.01,17.72-10.01,10.87,0,18.14,6.42,18.14,18.92Z"/>
</svg>