<?xml version="1.0" encoding="UTF-8"?>
<svg id="Layer_2" xmlns="http://www.w3.org/2000/svg" viewBox="0 0 457.72 354.2">
  <g id="Layer_1-2" data-name="Layer_1">
    <g>
      <path d="M266.41,38.1C251.52,14.19,225.94,0,197.84,0c-.31,0-.61,0-.92,0-28.46.31-54.12,15.12-68.63,39.61L0,256.1h82.07l106.96-180.49c2.55-4.3,6.52-4.98,8.67-5,.04,0,.08,0,.12,0,2.17,0,6.06.65,8.65,4.81l40.48,65h83.18l-63.72-102.33Z"/>
      <path d="M191.31,316.11c14.88,23.91,40.46,38.1,68.57,38.1.31,0,.61,0,.92,0,28.46-.31,54.12-15.12,68.63-39.61l128.29-216.49h-82.07l-106.96,180.49c-2.55,4.3-6.52,4.98-8.67,5-.04,0-.08,0-.12,0-2.17,0-6.06-.65-8.65-4.81l-40.48-65h-83.18l63.72,102.33Z"/>
    </g>
  </g>
</svg>